# xmcd
#
# Track frame offsets: 
#        150
#        13294
#        30310
#        33691
#        46229
#        61819
#        77103
#        89816
#        103809
#        118549
#        132034
#        166188
#
# Disc length: 2361 seconds
#
# Revision: 0
# Processed by: cddbd v1.5.2PL0 Copyright (c) Steve Scherf et al.
# Submitted via: ExactAudioCopy v0.99pb4
#
DISCID=9809370c
DTITLE=LISA_DOBY - WHO_WE_ARE
DYEAR=2008
DGENRE=Blues
TTITLE0=Unconditionally
TTITLE1=Who We Are
TTITLE2=Who We Are Outro
TTITLE3=That's Love
TTITLE4=That Kind Of Day
TTITLE5=Everytime It Rains
TTITLE6=Be With You
TTITLE7=Just Because
TTITLE8=Hold On
TTITLE9=Sankt Amarin
TTITLE10=Plus Fort Que Moi
TTITLE11=Feeling Good
EXTD=
EXTT0=
EXTT1=
EXTT2=
EXTT3=
EXTT4=
EXTT5=
EXTT6=
EXTT7=
EXTT8=
EXTT9=
EXTT10=
EXTT11=
PLAYORDER=
